<?xml version="1.0" encoding="UTF-8"?>
<svg id="Layer_2" data-name="Layer 2" xmlns="http://www.w3.org/2000/svg" viewBox="0 0 397.12 140.6">
  <g id="Layer_1-2" data-name="Layer 1">
    <g>
      <path d="M249.48,41.3h.19v87.2l11.04,10.28h-44.76l11.04-10.28V55.87" style="fill: #fff;"/>
      <path d="M193.52,41.3h.19v87.2l11.04,10.28h-44.76l11.04-10.28V55.87" style="fill: #fff;"/>
      <path d="M4.26,140.6h-.39l-2.52-41.85h.58c20.34,29.26,35.07,37.98,49.21,37.98,15.31,0,24.61-9.88,24.61-24.99,0-13.37-7.17-22.67-29.84-31l-18.6-6.98C9.3,66.98,0,55.35,0,39.66,0,17.57,18.6,1.1,44.18,1.1c12.79,0,24.86,6.07,29.9,6.07l10.21-6.07h.39l1.36,36.04h-.58C68.2,12.34,55.61,4.78,42.82,4.78c-13.95,0-23.83,9.11-23.83,22.28,0,11.24,7.17,19.57,24.8,26.16l18.6,6.98c22.86,8.53,32.55,20.73,32.55,38.75,0,24.61-18.41,41.66-46.7,41.66-14.14,0-30.13-6.07-34.78-6.07l-9.21,6.07Z" style="fill: #fff;"/>
      <path d="M171.06,125.18V14.57l-11.04-8.56v-.39L193.53,0h.19v125.18" style="fill: #fff;"/>
      <path d="M226.99,125.3V14.69l-11.04-8.56v-.39L249.47.12h.19v85.46h2.91c5.42,0,7.17-.39,10.46-3.49l26.76-25.56-3.69-3.47c-1.55-1.82-4.26-4.58-8.92-9.33v-.39h34.49v.39c-8.53,6.59-16.66,13.37-24.61,20.34l-12.01,10.85,40.5,63.36v.39h-26.54l-27.32-44.37c-2.91-4.84-4.26-5.62-9.3-5.62h-2.71v36.62" style="fill: #fff;"/>
      <path d="M326.79,107.08h.58c16.86,24.41,27.32,30.42,36.81,30.42s15.89-6.2,15.89-16.08c0-9.11-5.42-15.5-18.99-20.54l-13.95-5.23c-14.34-5.23-20.93-13.76-20.93-25.38,0-16.86,14.34-28.87,33.33-28.87,10.08,0,17.63,3.49,20.54,3.49,1.74,0,2.71-.58,10.08-3.49h.58l.58,28.09h-.58c-15.31-20.15-24.22-24.99-32.36-24.99-8.72,0-15.11,5.62-15.11,14.14,0,7.17,4.65,12.79,16.08,17.05l13.95,5.23c16.47,6.2,23.83,14.92,23.83,28.29,0,18.21-14.14,31.39-34.88,31.39-10.66,0-19.57-3.49-23.45-3.49-1.55,0-2.52.39-9.88,3.49h-.58l-1.55-33.52Z" style="fill: #fff;"/>
      <path d="M115.35,128.5V55.87l-11.04-8.56v-.39l33.52-5.62h.19v87.2l11.04,10.28h-44.76l11.04-10.28Z" style="fill: #fff;"/>
      <polyline points="108.79 11.78 137.33 6.28 137.33 26.3 128.09 27.4" style="fill: #fff;"/>
    </g>
  </g>
</svg>